<svg width="518" height="120" viewBox="0 0 518 120" fill="none" xmlns="http://www.w3.org/2000/svg">
<g clip-path="url(#clip0_71_60)">
<path d="M1.13084e-05 27.6619C1.26675e-05 19.889 8.47972 15.0878 15.145 19.087L40.2899 34.174C46.314 37.7884 50 44.2986 50 51.3238V68.6762C50 75.7015 46.314 82.2116 40.2899 85.8261L15.1449 100.913C8.47969 104.912 -1.359e-06 100.111 0 92.3381L1.13084e-05 27.6619Z" fill="#FA776C"/>
<path d="M103.855 1.74656e-05C109.151 1.85911e-05 111.85 6.362 108.169 10.1701L94.896 23.9004C91.1277 27.7987 85.9381 30 80.5163 30H55.5395C51.9146 30 48.3579 29.0148 45.2496 27.1498L18.5747 11.1449C13.3566 8.01406 15.5764 -1.2931e-06 21.6617 0L103.855 1.74656e-05Z" fill="#624CF5"/>
<path d="M103.855 120C109.151 120 111.85 113.638 108.169 109.83L94.896 96.0995C91.1277 92.2013 85.9382 90 80.5163 90H55.5395C51.9146 90 48.3579 90.9851 45.2496 92.8501L18.5747 108.855C13.3566 111.986 15.5764 120 21.6617 120H103.855Z" fill="#624CF5"/>
<path d="M86 60C86 51.7157 79.2843 45 71 45C62.7157 45 56 51.7157 56 60C56 68.2843 62.7157 75 71 75C79.2843 75 86 68.2843 86 60Z" fill="#FA776C"/>
<path d="M136.727 46.6364V36.4545H177.182V46.6364H163.182V83H150.727V46.6364H136.727ZM182.119 83V48.0909H194.665V83H182.119ZM188.392 44.4545C186.695 44.4545 185.241 43.8939 184.028 42.7727C182.816 41.6515 182.21 40.303 182.21 38.7273C182.21 37.1515 182.816 35.803 184.028 34.6818C185.241 33.5606 186.695 33 188.392 33C190.104 33 191.559 33.5606 192.756 34.6818C193.968 35.803 194.574 37.1515 194.574 38.7273C194.574 40.303 193.968 41.6515 192.756 42.7727C191.559 43.8939 190.104 44.4545 188.392 44.4545ZM217.875 96.8182C214.375 96.8182 211.375 96.3182 208.875 95.3182C206.39 94.3333 204.458 92.9697 203.08 91.2273C201.716 89.5 200.951 87.5152 200.784 85.2727H212.875C212.996 86.0152 213.299 86.6136 213.784 87.0682C214.269 87.5227 214.89 87.8485 215.648 88.0455C216.42 88.2576 217.284 88.3636 218.239 88.3636C219.86 88.3636 221.201 87.9697 222.261 87.1818C223.337 86.3939 223.875 84.9697 223.875 82.9091V77H223.511C223.057 78.1818 222.36 79.1894 221.42 80.0227C220.481 80.8409 219.352 81.4697 218.034 81.9091C216.716 82.3333 215.269 82.5455 213.693 82.5455C211.208 82.5455 208.92 81.9697 206.83 80.8182C204.754 79.6667 203.087 77.8409 201.83 75.3409C200.587 72.8409 199.966 69.5758 199.966 65.5455C199.966 61.3333 200.617 57.9091 201.92 55.2727C203.239 52.6364 204.936 50.7045 207.011 49.4773C209.102 48.25 211.299 47.6364 213.602 47.6364C215.33 47.6364 216.845 47.9394 218.148 48.5455C219.451 49.1364 220.542 49.9318 221.42 50.9318C222.299 51.9167 222.966 53 223.42 54.1818H223.693V48.0909H236.239V82.9091C236.239 85.8636 235.473 88.3712 233.943 90.4318C232.428 92.5076 230.292 94.0909 227.534 95.1818C224.777 96.2727 221.557 96.8182 217.875 96.8182ZM218.33 73.6364C219.481 73.6364 220.466 73.3182 221.284 72.6818C222.117 72.0303 222.754 71.1061 223.193 69.9091C223.648 68.697 223.875 67.2424 223.875 65.5455C223.875 63.8182 223.648 62.3409 223.193 61.1136C222.754 59.8712 222.117 58.9242 221.284 58.2727C220.466 57.6061 219.481 57.2727 218.33 57.2727C217.178 57.2727 216.193 57.6061 215.375 58.2727C214.572 58.9242 213.951 59.8712 213.511 61.1136C213.087 62.3409 212.875 63.8182 212.875 65.5455C212.875 67.2727 213.087 68.7424 213.511 69.9545C213.951 71.1515 214.572 72.0682 215.375 72.7045C216.193 73.3258 217.178 73.6364 218.33 73.6364ZM259.347 83.6364C255.619 83.6364 252.407 82.9242 249.71 81.5C247.028 80.0606 244.96 78 243.506 75.3182C242.066 72.6212 241.347 69.3939 241.347 65.6364C241.347 62.0303 242.074 58.8788 243.528 56.1818C244.983 53.4848 247.036 51.3864 249.688 49.8864C252.339 48.3864 255.468 47.6364 259.074 47.6364C261.71 47.6364 264.097 48.0455 266.233 48.8636C268.369 49.6818 270.195 50.8712 271.71 52.4318C273.225 53.9773 274.392 55.8561 275.21 58.0682C276.028 60.2803 276.438 62.7727 276.438 65.5455V68.4545H245.256V61.5455H264.892C264.877 60.5455 264.619 59.6667 264.119 58.9091C263.634 58.1364 262.975 57.5379 262.142 57.1136C261.324 56.6742 260.392 56.4545 259.347 56.4545C258.331 56.4545 257.4 56.6742 256.551 57.1136C255.703 57.5379 255.021 58.1288 254.506 58.8864C254.006 59.6439 253.741 60.5303 253.71 61.5455V69C253.71 70.1212 253.945 71.1212 254.415 72C254.884 72.8788 255.559 73.5682 256.438 74.0682C257.316 74.5682 258.377 74.8182 259.619 74.8182C260.483 74.8182 261.271 74.697 261.983 74.4545C262.71 74.2121 263.331 73.8636 263.847 73.4091C264.362 72.9394 264.741 72.3788 264.983 71.7273H276.438C276.044 74.1515 275.112 76.2576 273.642 78.0455C272.172 79.8182 270.225 81.197 267.801 82.1818C265.392 83.1515 262.574 83.6364 259.347 83.6364ZM281.557 83V48.0909H293.739V54.7273H294.102C294.739 52.2727 295.746 50.4773 297.125 49.3409C298.519 48.2045 300.148 47.6364 302.011 47.6364C302.557 47.6364 303.095 47.6818 303.625 47.7727C304.17 47.8485 304.693 47.9621 305.193 48.1136V58.8182C304.572 58.6061 303.807 58.447 302.898 58.3409C301.989 58.2348 301.208 58.1818 300.557 58.1818C299.33 58.1818 298.223 58.4621 297.239 59.0227C296.269 59.5682 295.504 60.3409 294.943 61.3409C294.383 62.3258 294.102 63.4848 294.102 64.8182V83H281.557ZM321.875 83V36.4545H355.42V46.6364H334.511V54.6364H353.693V64.8182H334.511V72.8182H355.33V83H321.875ZM397.051 48.0909L385.324 83H370.778L359.051 48.0909H372.233L377.869 71.1818H378.233L383.869 48.0909H397.051ZM416.284 83.6364C412.557 83.6364 409.345 82.9242 406.648 81.5C403.966 80.0606 401.898 78 400.443 75.3182C399.004 72.6212 398.284 69.3939 398.284 65.6364C398.284 62.0303 399.011 58.8788 400.466 56.1818C401.92 53.4848 403.973 51.3864 406.625 49.8864C409.277 48.3864 412.405 47.6364 416.011 47.6364C418.648 47.6364 421.034 48.0455 423.17 48.8636C425.307 49.6818 427.133 50.8712 428.648 52.4318C430.163 53.9773 431.33 55.8561 432.148 58.0682C432.966 60.2803 433.375 62.7727 433.375 65.5455V68.4545H402.193V61.5455H421.83C421.814 60.5455 421.557 59.6667 421.057 58.9091C420.572 58.1364 419.913 57.5379 419.08 57.1136C418.261 56.6742 417.33 56.4545 416.284 56.4545C415.269 56.4545 414.337 56.6742 413.489 57.1136C412.64 57.5379 411.958 58.1288 411.443 58.8864C410.943 59.6439 410.678 60.5303 410.648 61.5455V69C410.648 70.1212 410.883 71.1212 411.352 72C411.822 72.8788 412.496 73.5682 413.375 74.0682C414.254 74.5682 415.314 74.8182 416.557 74.8182C417.42 74.8182 418.208 74.697 418.92 74.4545C419.648 74.2121 420.269 73.8636 420.784 73.4091C421.299 72.9394 421.678 72.3788 421.92 71.7273H433.375C432.981 74.1515 432.049 76.2576 430.58 78.0455C429.11 79.8182 427.163 81.197 424.739 82.1818C422.33 83.1515 419.511 83.6364 416.284 83.6364ZM451.04 63.3636V83H438.494V48.0909H450.403V54.7273H450.767C451.525 52.5152 452.858 50.7803 454.767 49.5227C456.691 48.2652 458.934 47.6364 461.494 47.6364C463.964 47.6364 466.108 48.2045 467.926 49.3409C469.759 50.4621 471.176 52.0076 472.176 53.9773C473.191 55.947 473.691 58.197 473.676 60.7273V83H461.131V63.3636C461.146 61.6364 460.706 60.2803 459.812 59.2955C458.934 58.3106 457.706 57.8182 456.131 57.8182C455.1 57.8182 454.199 58.0455 453.426 58.5C452.669 58.9394 452.085 59.5758 451.676 60.4091C451.267 61.2273 451.055 62.2121 451.04 63.3636ZM500.688 48.0909V57.1818H477.688V48.0909H500.688ZM482.142 39.7273H494.688V71.7727C494.688 72.2576 494.771 72.6667 494.938 73C495.104 73.3182 495.362 73.5606 495.71 73.7273C496.059 73.8788 496.506 73.9545 497.051 73.9545C497.43 73.9545 497.869 73.9091 498.369 73.8182C498.884 73.7273 499.263 73.6515 499.506 73.5909L501.324 82.4091C500.763 82.5758 499.96 82.7803 498.915 83.0227C497.884 83.2652 496.657 83.4242 495.233 83.5C492.354 83.6515 489.938 83.3561 487.983 82.6136C486.028 81.8561 484.559 80.6667 483.574 79.0455C482.589 77.4242 482.112 75.3939 482.142 72.9545V39.7273Z" fill="black"/>
</g>
<defs>
<clipPath id="clip0_71_60">
<rect width="518" height="120" fill="white"/>
</clipPath>
</defs>
</svg>
